# xmcd
#
# Track frame offsets:
#	150
#	14857
#	39162
#	66577
#	90302
#	106097
#	124382
#
# Disc length: 1899 seconds
#
# Revision: 1
# Processed by: cddbd v1.5.2PL0 Copyright (c) Steve Scherf et al.
# Submitted via: audiograbber 1.83.01
#
DISCID=59076907
DTITLE=Various Artist - UMVD Solicitation Sampler
DYEAR=2001
DGENRE=Other
TTITLE0=A*Teens - Bouncing Off the Ceiling (Upside Down)
TTITLE1=Bush - Letting the Cables Sleep (The N.O.W. Remix)
TTITLE2=Moby - Whispering Wind
TTITLE3=Gladys Knight - Grandma's Hands
TTITLE4=Gladys Knight - If I were Your Woman II (Radio Edit)
TTITLE5=Jersey Ave. - Beautiful Girl
TTITLE6=Jersey Ave. - I'll Be Right There
EXTD=
EXTT0=
EXTT1=
EXTT2=
EXTT3=
EXTT4=
EXTT5=
EXTT6=
PLAYORDER=
